<svg width="640" height="480" viewBox="0 0 640 480" fill="none" xmlns="http://www.w3.org/2000/svg">
<rect width="640" height="480" fill="#424242"/>
<rect width="213" height="480" fill="#737373"/>
<rect x="213" width="214" height="480" fill="#5A5A5A"/>
<path d="M283.168 291.114V278.468C283.168 270.72 284.25 263.884 286.415 257.96C288.58 251.922 292.055 246.225 296.84 240.87C301.625 235.401 307.948 229.819 315.81 224.122C322.873 219.109 328.513 214.609 332.729 210.621C337.058 206.633 340.191 202.703 342.128 198.829C344.179 194.841 345.204 190.341 345.204 185.328C345.204 177.923 342.47 172.283 337.001 168.409C331.532 164.535 323.899 162.599 314.101 162.599C304.302 162.599 294.561 164.137 284.877 167.213C275.307 170.289 265.565 174.334 255.653 179.347L237.025 141.92C248.419 135.54 260.78 130.413 274.11 126.539C287.44 122.551 302.024 120.558 317.86 120.558C342.242 120.558 361.098 126.425 374.428 138.16C387.872 149.781 394.594 164.592 394.594 182.594C394.594 192.164 393.056 200.481 389.979 207.545C387.017 214.495 382.46 220.989 376.308 227.027C370.269 232.952 362.693 239.218 353.578 245.826C346.742 250.839 341.501 255.055 337.855 258.473C334.21 261.891 331.703 265.309 330.336 268.727C329.083 272.031 328.456 276.075 328.456 280.86V291.114H283.168ZM277.699 349.562C277.699 338.852 280.604 331.332 286.415 327.003C292.34 322.674 299.46 320.509 307.777 320.509C315.867 320.509 322.816 322.674 328.627 327.003C334.551 331.332 337.514 338.852 337.514 349.562C337.514 359.815 334.551 367.221 328.627 371.778C322.816 376.336 315.867 378.614 307.777 378.614C299.46 378.614 292.34 376.336 286.415 371.778C280.604 367.221 277.699 359.815 277.699 349.562Z" fill="white"/>
</svg>
