<svg width="20" height="20" viewBox="0 0 20 20" fill="none" xmlns="http://www.w3.org/2000/svg">
<path fill-rule="evenodd" clip-rule="evenodd" d="M20 5.86501L14.1472 0.00504994L5.86501 0L0.00504994 5.85281L0 14.135L5.85281 19.9949L14.135 20L19.9949 14.1472L20 5.86501ZM10.0944 1.93824C10.0633 1.84869 9.9367 1.84869 9.9055 1.93824L8.0636 7.23739C8.0498 7.27689 8.0129 7.30368 7.97113 7.30453L2.36215 7.41883C2.26735 7.42077 2.22822 7.54122 2.30377 7.5985L6.77435 10.9879C6.80768 11.0131 6.82176 11.0565 6.80965 11.0965L5.18509 16.4663C5.15763 16.557 5.2601 16.6315 5.33792 16.5773L9.9429 13.3729C9.9772 13.349 10.0228 13.349 10.0571 13.3729L14.6621 16.5773C14.7399 16.6315 14.8423 16.557 14.8149 16.4663L13.1903 11.0965C13.1782 11.0565 13.1923 11.0131 13.2256 10.9879L17.6962 7.5985C17.7718 7.54122 17.7326 7.42077 17.6378 7.41883L12.0288 7.30453C11.987 7.30368 11.9502 7.27689 11.9364 7.23739L10.0944 1.93824Z" fill="#FF5500"/>
</svg>